Coordinates
version=1
nRows=14
nColumns=42
inDegrees=yes

Units are S.I. units (second, meters, Newtons, ...)
If the header above contains a line with 'inDegrees', this indicates whether rotational values are in degrees (yes) or radians (no).

endheader
time	pelvis_tilt	pelvis_list	pelvis_rotation	pelvis_tx	pelvis_ty	pelvis_tz	hip_flexion_r	hip_adduction_r	hip_rotation_r	knee_angle_r	knee_adduction_r	knee_angle_r_beta	ankle_angle_r	subtalar_angle_r	mtp_angle_r	hip_flexion_l	hip_adduction_l	hip_rotation_l	knee_angle_l	knee_adduction_l	knee_angle_l_beta	ankle_angle_l	subtalar_angle_l	mtp_angle_l	lumbar_extension	lumbar_bending	lumbar_rotation	arm_flex_r	arm_add_r	arm_rot_r	elbow_flex_r	pro_sup_r	wrist_flex_r	wrist_dev_r	arm_flex_l	arm_add_l	arm_rot_l	elbow_flex_l	pro_sup_l	wrist_flex_l	wrist_dev_l
      0.42000000	      6.71124482	     -1.73099576	     -1.25200734	     -0.40687195	      0.83290394	     -0.30095511	      4.37473770	      1.55713818	    -32.82505882	     27.13452953	     -7.92264679	      0.47358688	     26.07704678	     29.53343066	     -7.79403404	     18.99742185	     -8.05681058	    -10.39999163	     64.81139805	     -6.25290531	      1.13117229	     10.21824866	    -13.10352819	     -7.79403404	    -20.34282637	      1.60078615	      4.07183538	      3.01649441	    -17.15339650	     -4.01935762	     37.20808483	     90.00000001	      0.00000000	      0.00000000	     -1.27016998	     -7.80894746	    -23.18551018	     39.49589113	     90.00000001	      0.00000000	      0.00000000
      0.43000000	      6.83172832	     -1.46099826	     -1.80856718	     -0.39230828	      0.83396810	     -0.29906619	      2.56646838	      1.26341995	    -33.17883176	     26.17791650	     -7.60981104	      0.45689083	     26.55963828	     30.94732089	     -7.77859274	     20.14804165	     -7.55697968	    -11.41953328	     62.04274942	     -6.35193940	      1.08285025	     10.68752114	    -12.75836455	     -7.77859274	    -20.44038778	      0.96054784	      5.03777426	      3.12452849	    -17.53696036	     -3.24161134	     37.80744615	     90.00000001	      0.00000000	      0.00000000	     -1.84912983	     -7.73436656	    -24.81850985	     38.62217096	     90.00000001	      0.00000000	      0.00000000
      0.44000000	      6.89734259	     -1.39058970	     -2.36787389	     -0.37778605	      0.83446524	     -0.29724568	      0.78929096	      1.20833205	    -33.31206293	     25.16503834	     -7.21096690	      0.43921278	     27.05613525	     31.92856863	     -7.76854413	     21.24647867	     -7.31427368	    -12.37513477	     59.07235537	     -6.31775356	      1.03100710	     11.11872364	    -12.79589875	     -7.76854413	    -20.46028550	      0.58026530	      6.10745627	      3.25944411	    -17.96181308	     -2.73352530	     38.32945565	     90.00000001	      0.00000000	      0.00000000	     -2.43157753	     -7.71948365	    -25.98603879	     37.67304042	     90.00000001	      0.00000000	      0.00000000
      0.45000000	      6.99281714	     -1.28279230	     -2.92895690	     -0.36317792	      0.83453863	     -0.29547828	     -0.93327784	      0.97827671	    -33.82946566	     24.35650780	     -6.86538835	      0.42510126	     27.42568407	     33.23439076	     -7.75560649	     22.13159181	     -7.06555845	    -13.62932598	     55.74883034	     -6.36627928	      0.97300064	     11.42189087	    -12.60787998	     -7.75560649	    -20.50723816	      0.16446755	      7.06641427	      3.42333194	    -18.43222937	     -1.95715422	     38.95290240	     90.00000001	      0.00000000	      0.00000000	     -3.05586035	     -7.64316325	    -27.80012758	     36.91211786	     90.00000001	      0.00000000	      0.00000000
      0.46000000	      6.97328229	     -1.31852420	     -3.46838321	     -0.34859237	      0.83394860	     -0.29384524	     -2.46704054	      0.85704487	    -34.41892174	     23.70332995	     -6.52593467	      0.41370115	     27.85985273	     34.39973912	     -7.73796869	     23.05124661	     -7.00624355	    -15.01601454	     52.27617353	     -6.43863022	      0.91239135	     11.91710816	    -12.26689482	     -7.73796869	    -20.42083621	     -0.05597093	      8.03538702	      3.63353919	    -18.97591763	     -1.12774236	     39.44562241	     90.00000001	      0.00000000	      0.00000000	     -3.67691370	     -7.54959924	    -29.70884757	     36.15267472	     90.00000001	      0.00000000	      0.00000000
      0.47000000	      7.01414530	     -1.54143495	     -3.93634754	     -0.33397119	      0.83309830	     -0.29217771	     -4.17683960	      1.03770813	    -34.71774225	     22.86073803	     -6.10967492	      0.39899515	     28.17849020	     35.12421566	     -7.72918712	     23.75194677	     -7.19571806	    -16.30233634	     48.63679249	     -6.30325487	      0.84887217	     12.29568561	    -11.86841825	     -7.72918712	    -20.41474956	     -0.05787917	      9.02659894	      3.83947168	    -19.47244979	     -0.68220399	     39.93500627	     90.00000001	      0.00000000	      0.00000000	     -4.35364233	     -7.59319560	    -30.92779452	     35.38733404	     90.00000001	      0.00000000	      0.00000000
      0.48000000	      6.97008990	     -1.73588654	     -4.42280666	     -0.31925951	      0.83164967	     -0.29077212	     -5.64535434	      1.03686115	    -35.34703813	     22.36769797	     -5.77786277	      0.39038998	     28.50043427	     35.89492335	     -7.71237529	     24.43271605	     -7.38620701	    -18.10503241	     44.87222936	     -6.35091941	      0.78316815	     13.11333648	    -10.15689183	     -7.71237529	    -20.30260826	     -0.05453955	      9.88879985	      4.14364059	    -20.07500799	      0.20123260	     40.36366720	     90.00000001	      0.00000000	      0.00000000	     -5.02140039	     -7.45156049	    -33.19823070	     34.75100203	     90.00000001	      0.00000000	      0.00000000
      0.49000000	      6.94561521	     -2.05976533	     -4.83540384	     -0.30448432	      0.82991786	     -0.28941744	     -7.18313911	      1.25030444	    -35.77456931	     21.80456446	     -5.44436109	      0.38056144	     28.76298740	     36.37255994	     -7.69723660	     24.97227305	     -7.75031267	    -19.88879146	     41.10168399	     -6.20484709	      0.71735971	     14.01924335	     -7.85646968	     -7.69723660	    -20.22154943	      0.11113444	     10.71015240	      4.47388205	    -20.64199916	      0.85937754	     40.74148617	     90.00000001	      0.00000000	      0.00000000	     -5.75376063	     -7.39602310	    -34.99660513	     34.14171479	     90.00000001	      0.00000000	      0.00000000
      0.50000000	      6.89320398	     -2.46436484	     -5.21421925	     -0.28961479	      0.82780429	     -0.28814706	     -8.65719613	      1.53856573	    -36.19043545	     21.33846884	     -5.15886113	      0.37242654	     29.03999546	     36.76974765	     -7.68157397	     25.46363789	     -8.26829601	    -21.91120857	     37.44669487	     -5.96431478	      0.65356812	     15.16456180	     -4.44141555	     -7.68157397	    -20.11374784	      0.37998600	     11.48578061	      4.83283471	    -21.21331115	      1.53626970	     41.03768689	     90.00000001	      0.00000000	      0.00000000	     -6.48868875	     -7.33934530	    -36.84258215	     33.56333410	     90.00000001	      0.00000000	      0.00000000
      0.51000000	      6.86236120	     -2.86639846	     -5.57557930	     -0.27465468	      0.82548216	     -0.28701684	    -10.12146088	      1.81380370	    -36.50357512	     20.94537455	     -4.93302917	      0.36556575	     29.25687902	     37.05433733	     -7.66830195	     25.83345637	     -8.80256061	    -24.06514017	     33.95877624	     -5.58643289	      0.59269246	     16.35252574	     -0.27151575	     -7.66830195	    -20.02888732	      0.66115632	     12.17177652	      5.24574903	    -21.76257933	      2.17272649	     41.28367578	     90.00000001	      0.00000000	      0.00000000	     -7.27362138	     -7.28429093	    -38.64251114	     33.05248102	     90.00000001	      0.00000000	      0.00000000
      0.52000000	      6.84768363	     -3.24035619	     -5.89004469	     -0.25961145	      0.82301546	     -0.28596087	    -11.57173080	      2.05010195	    -36.72233654	     20.62036216	     -4.74515183	      0.35989321	     29.45745847	     37.26085215	     -7.65770485	     26.08950585	     -9.30475908	    -26.12040620	     30.72061400	     -4.99084092	      0.53617586	     17.46977862	      4.25253629	     -7.65770485	    -19.96916645	      0.92041262	     12.73395470	      5.71936657	    -22.25025519	      2.76406180	     41.46812033	     90.00000001	      0.00000000	      0.00000000	     -8.06685796	     -7.26485918	    -40.34404293	     32.52544143	     90.00000001	      0.00000000	      0.00000000
      0.53000000	      6.82533675	     -3.62478556	     -6.22214091	     -0.24452472	      0.82040697	     -0.28499363	    -12.91423644	      2.25578757	    -36.80816642	     20.47401459	     -4.66263672	      0.35733897	     29.60992159	     37.42882011	     -7.64797056	     26.35284855	     -9.85858942	    -28.29508051	     27.96517508	     -4.37832624	      0.48808438	     18.46054374	      9.15360154	     -7.64797056	    -19.89960101	      1.19088300	     13.26399814	      6.19953321	    -22.71822215	      3.32450217	     41.61395040	     90.00000001	      0.00000000	      0.00000000	     -8.84554758	     -7.22031563	    -42.11417124	     32.00087586	     90.00000001	      0.00000000	      0.00000000
      0.54000000	      6.79860812	     -3.96625079	     -6.54092165	     -0.22943422	      0.81774516	     -0.28411820	    -14.15090445	      2.34908732	    -36.84039285	     20.50533916	     -4.64599468	      0.35788568	     29.70507882	     37.63236491	     -7.63935272	     26.59706899	    -10.33696821	    -30.20830972	     25.69036614	     -3.70913104	      0.44838148	     19.18397482	     13.64977593	     -7.63935272	    -19.84582981	      1.41779288	     13.71214396	      6.69796461	    -23.13071140	      3.79580419	     41.73667892	     90.00000001	      0.00000000	      0.00000000	     -9.60611617	     -7.18957809	    -43.80532906	     31.50187483	     90.00000001	      0.00000000	      0.00000000
      0.55000000	      6.82653307	     -4.25492239	     -6.91387709	     -0.21418611	      0.81520610	     -0.28321377	    -15.39409012	      2.35138230	    -36.61729381	     20.59182289	     -4.69500901	      0.35939511	     29.67499356	     37.75287462	     -7.63136660	     26.75062309	    -10.78216819	    -31.90397529	     23.99880280	     -3.05736667	      0.41885813	     19.68758113	     17.54109756	     -7.63136660	    -19.84611909	      1.55948942	     14.14043408	      7.17690446	    -23.48485140	      4.18817168	     41.83567189	     90.00000001	      0.00000000	      0.00000000	    -10.32254021	     -7.16179992	    -45.54139178	     30.96326676	     90.00000001	      0.00000000	      0.00000000
